<svg width="1242" height="500" viewBox="0 0 1242 500" fill="none" xmlns="http://www.w3.org/2000/svg">
<path d="M250.001 489.258C256.473 489.258 261.72 484.011 261.72 477.539C261.72 471.067 256.473 465.82 250.001 465.82C243.529 465.82 238.282 471.067 238.282 477.539C238.282 484.011 243.529 489.258 250.001 489.258Z" fill="#1A99AF"/>
<path d="M352.539 427.734C359.011 427.734 364.258 422.488 364.258 416.016C364.258 409.544 359.011 404.297 352.539 404.297C346.067 404.297 340.82 409.544 340.82 416.016C340.82 422.488 346.067 427.734 352.539 427.734Z" fill="#1A99AF"/>
<path d="M102.539 398.438C109.011 398.438 114.258 393.191 114.258 386.719C114.258 380.247 109.011 375 102.539 375C96.067 375 90.8203 380.247 90.8203 386.719C90.8203 393.191 96.067 398.438 102.539 398.438Z" fill="#1A99AF"/>
<path d="M52.7344 369.141C59.2065 369.141 64.4531 363.894 64.4531 357.422C64.4531 350.95 59.2065 345.703 52.7344 345.703C46.2623 345.703 41.0156 350.95 41.0156 357.422C41.0156 363.894 46.2623 369.141 52.7344 369.141Z" fill="#1A99AF"/>
<path d="M117.188 339.844C123.66 339.844 128.906 334.597 128.906 328.125C128.906 321.653 123.66 316.406 117.188 316.406C110.715 316.406 105.469 321.653 105.469 328.125C105.469 334.597 110.715 339.844 117.188 339.844Z" fill="#272727"/>
<path d="M159.18 310.547C165.652 310.547 170.898 305.3 170.898 298.828C170.898 292.356 165.652 287.109 159.18 287.109C152.708 287.109 147.461 292.356 147.461 298.828C147.461 305.3 152.708 310.547 159.18 310.547Z" fill="#272727"/>
<path d="M128.906 251.953C135.378 251.953 140.625 246.706 140.625 240.234C140.625 233.762 135.378 228.516 128.906 228.516C122.434 228.516 117.188 233.762 117.188 240.234C117.188 246.706 122.434 251.953 128.906 251.953Z" fill="#272727"/>
<path d="M141.602 222.656C148.074 222.656 153.32 217.41 153.32 210.938C153.32 204.465 148.074 199.219 141.602 199.219C135.129 199.219 129.883 204.465 129.883 210.938C129.883 217.41 135.129 222.656 141.602 222.656Z" fill="#272727"/>
<path d="M228.516 281.25C234.988 281.25 240.234 276.003 240.234 269.531C240.234 263.059 234.988 257.812 228.516 257.812C222.044 257.812 216.797 263.059 216.797 269.531C216.797 276.003 222.044 281.25 228.516 281.25Z" fill="#272727"/>
<path d="M257.812 251.953C264.285 251.953 269.531 246.706 269.531 240.234C269.531 233.762 264.285 228.516 257.812 228.516C251.34 228.516 246.094 233.762 246.094 240.234C246.094 246.706 251.34 251.953 257.812 251.953Z" fill="#272727"/>
<path d="M337.891 251.953C344.363 251.953 349.609 246.706 349.609 240.234C349.609 233.762 344.363 228.516 337.891 228.516C331.419 228.516 326.172 233.762 326.172 240.234C326.172 246.706 331.419 251.953 337.891 251.953Z" fill="white"/>
<path d="M323.242 222.656C329.714 222.656 334.961 217.41 334.961 210.938C334.961 204.465 329.714 199.219 323.242 199.219C316.77 199.219 311.523 204.465 311.523 210.938C311.523 217.41 316.77 222.656 323.242 222.656Z" fill="#272727"/>
<path d="M190.43 398.438C196.902 398.438 202.148 393.191 202.148 386.719C202.148 380.247 196.902 375 190.43 375C183.958 375 178.711 380.247 178.711 386.719C178.711 393.191 183.958 398.438 190.43 398.438Z" fill="#1A99AF"/>
<path d="M287.109 398.438C293.581 398.438 298.828 393.191 298.828 386.719C298.828 380.247 293.581 375 287.109 375C280.637 375 275.391 380.247 275.391 386.719C275.391 393.191 280.637 398.438 287.109 398.438Z" fill="#1A99AF"/>
<path d="M52.7344 310.547C59.2065 310.547 64.4531 305.3 64.4531 298.828C64.4531 292.356 59.2065 287.109 52.7344 287.109C46.2623 287.109 41.0156 292.356 41.0156 298.828C41.0156 305.3 46.2623 310.547 52.7344 310.547Z" fill="#1A99AF"/>
<path d="M125.977 281.25C132.449 281.25 137.695 276.003 137.695 269.531C137.695 263.059 132.449 257.812 125.977 257.812C119.504 257.812 114.258 263.059 114.258 269.531C114.258 276.003 119.504 281.25 125.977 281.25Z" fill="#272727"/>
<path d="M49.8047 251.953C56.2768 251.953 61.5234 246.706 61.5234 240.234C61.5234 233.762 56.2768 228.516 49.8047 228.516C43.3326 228.516 38.0859 233.762 38.0859 240.234C38.0859 246.706 43.3326 251.953 49.8047 251.953Z" fill="#1A99AF"/>
<path d="M198.243 445.312H303.712" stroke="#1A99AF" stroke-width="24" stroke-linecap="round"/>
<path d="M142.578 404.297C136.106 404.297 130.859 409.544 130.859 416.016C130.859 422.487 136.106 427.734 142.578 427.734V404.297ZM318.359 427.734H330.078V404.297H318.359V427.734ZM142.578 427.734H318.359V404.297H142.578V427.734Z" fill="#1A99AF"/>
<path d="M446.289 369.141C452.761 369.141 458.008 363.894 458.008 357.422C458.008 350.95 452.761 345.703 446.289 345.703C439.817 345.703 434.57 350.95 434.57 357.422C434.57 363.894 439.817 369.141 446.289 369.141Z" fill="#1A99AF"/>
<path d="M446.289 310.547C452.761 310.547 458.008 305.3 458.008 298.828C458.008 292.356 452.761 287.109 446.289 287.109C439.817 287.109 434.57 292.356 434.57 298.828C434.57 305.3 439.817 310.547 446.289 310.547Z" fill="#1A99AF"/>
<path d="M375.977 240.234C375.977 246.706 370.729 251.953 364.258 251.953C357.786 251.953 352.539 246.706 352.539 240.234C352.539 233.763 357.786 228.516 364.258 228.516C370.729 228.516 375.977 233.763 375.977 240.234Z" fill="white"/>
<path d="M391.602 251.953C398.074 251.953 403.32 246.706 403.32 240.234C403.32 233.762 398.074 228.516 391.602 228.516C385.129 228.516 379.883 233.762 379.883 240.234C379.883 246.706 385.129 251.953 391.602 251.953Z" fill="#272727"/>
<path d="M337.891 280.273C344.363 280.273 349.609 275.027 349.609 268.555C349.609 262.083 344.363 256.836 337.891 256.836C331.419 256.836 326.172 262.083 326.172 268.555C326.172 275.027 331.419 280.273 337.891 280.273Z" fill="white"/>
<path d="M276.367 210.938C276.367 217.409 271.12 222.656 264.648 222.656C258.177 222.656 252.93 217.409 252.93 210.938C252.93 204.466 258.177 199.219 264.648 199.219C271.12 199.219 276.367 204.466 276.367 210.938Z" fill="#272727"/>
<path d="M309.57 328.125C309.57 334.597 304.323 339.844 297.852 339.844C291.38 339.844 286.133 334.597 286.133 328.125C286.133 321.653 291.38 316.406 297.852 316.406C304.323 316.406 309.57 321.653 309.57 328.125Z" fill="white"/>
<path d="M232.423 30.2734C232.423 23.8014 237.67 18.5547 244.142 18.5547C250.613 18.5547 255.86 23.8014 255.86 30.2734C255.86 36.7455 250.613 41.9922 244.142 41.9922C237.67 41.9922 232.423 36.7455 232.423 30.2734Z" fill="#1A99AF"/>
<path d="M128.906 91.7969C128.906 85.3248 134.153 80.0781 140.625 80.0781C147.097 80.0781 152.344 85.3248 152.344 91.7969C152.344 98.2686 147.097 103.516 140.625 103.516C134.153 103.516 128.906 98.2686 128.906 91.7969Z" fill="#1A99AF"/>
<path d="M387.695 121.094C387.695 114.622 392.942 109.375 399.414 109.375C405.886 109.375 411.133 114.622 411.133 121.094C411.133 127.565 405.886 132.812 399.414 132.812C392.942 132.812 387.695 127.565 387.695 121.094Z" fill="#1A99AF"/>
<path d="M428.711 179.688C428.711 173.216 433.958 167.969 440.43 167.969C446.901 167.969 452.148 173.216 452.148 179.688C452.148 186.159 446.901 191.406 440.43 191.406C433.958 191.406 428.711 186.159 428.711 179.688Z" fill="#1A99AF"/>
<path d="M284.18 210.938C284.18 204.466 289.427 199.219 295.898 199.219C302.37 199.219 307.617 204.466 307.617 210.938C307.617 217.409 302.37 222.656 295.898 222.656C289.427 222.656 284.18 217.409 284.18 210.938Z" fill="#1A99AF"/>
<path d="M250.977 179.688C250.977 173.216 256.224 167.969 262.695 167.969C269.167 167.969 274.414 173.216 274.414 179.688C274.414 186.159 269.167 191.406 262.695 191.406C256.224 191.406 250.977 186.159 250.977 179.688Z" fill="#1A99AF"/>
<path d="M35.1562 150.391C35.1562 143.919 40.4029 138.672 46.875 138.672C53.3471 138.672 58.5938 143.919 58.5938 150.391C58.5938 156.862 53.3471 162.109 46.875 162.109C40.4029 162.109 35.1562 156.862 35.1562 150.391Z" fill="#1A99AF"/>
<path d="M295.9 62.5H190.431" stroke="#1A99AF" stroke-width="24" stroke-linecap="round"/>
<path d="M170.898 80.0781H159.18V103.516H170.898V80.0781ZM351.562 103.516C358.034 103.516 363.281 98.2686 363.281 91.7969C363.281 85.3248 358.034 80.0781 351.562 80.0781V103.516ZM170.898 103.516H351.562V80.0781H170.898V103.516Z" fill="#1A99AF"/>
<path d="M74.2188 138.672H62.5V162.109H74.2188V138.672ZM440.43 162.109C446.901 162.109 452.148 156.862 452.148 150.391C452.148 143.919 446.901 138.672 440.43 138.672V162.109ZM74.2188 162.109H440.43V138.672H74.2188V162.109Z" fill="#1A99AF"/>
<path d="M85.9337 109.375C79.4617 109.375 74.215 114.622 74.215 121.094C74.215 127.565 79.4617 132.812 85.9337 132.812V109.375ZM372.074 132.812H383.792V109.375H372.074V132.812ZM85.9337 132.812H372.074V109.375H85.9337V132.812Z" fill="#1A99AF"/>
<path d="M313.477 375H301.758V398.438H313.477V375ZM411.133 398.438C417.604 398.438 422.852 393.19 422.852 386.719C422.852 380.247 417.604 375 411.133 375V398.438ZM313.477 398.438H411.133V375H313.477V398.438Z" fill="#1A99AF"/>
<path d="M129.883 375H118.164V398.438H129.883V375ZM165.039 398.438C171.511 398.438 176.758 393.19 176.758 386.719C176.758 380.247 171.511 375 165.039 375V398.438ZM129.883 398.438H165.039V375H129.883V398.438Z" fill="#1A99AF"/>
<path d="M82.0312 345.703H70.3125V369.141H82.0312V345.703ZM117.188 369.141C123.659 369.141 128.906 363.894 128.906 357.422C128.906 350.95 123.659 345.703 117.188 345.703V369.141ZM82.0312 369.141H117.188V345.703H82.0312V369.141Z" fill="#272727"/>
<path d="M255.859 345.703C249.388 345.703 244.141 350.95 244.141 357.422C244.141 363.894 249.388 369.141 255.859 369.141V345.703ZM413.086 369.141H424.805V345.703H413.086V369.141ZM255.859 369.141H413.086V345.703H255.859V369.141Z" fill="#1A99AF"/>
<path d="M143.555 345.703C137.083 345.703 131.836 350.95 131.836 357.422C131.836 363.894 137.083 369.141 143.555 369.141V345.703ZM230.469 369.141H242.188V345.703H230.469V369.141ZM143.555 369.141H230.469V345.703H143.555V369.141Z" fill="white"/>
<path d="M188.477 287.109C182.005 287.109 176.758 292.356 176.758 298.828C176.758 305.3 182.005 310.547 188.477 310.547V287.109ZM264.648 310.547H276.367V287.109H264.648V310.547ZM188.477 310.547H264.648V287.109H188.477V310.547Z" fill="white"/>
<path d="M291.992 287.109C285.521 287.109 280.273 292.356 280.273 298.828C280.273 305.3 285.521 310.547 291.992 310.547V287.109ZM326.172 310.547H337.891V287.109H326.172V310.547ZM291.992 310.547H326.172V287.109H291.992V310.547Z" fill="white"/>
<path d="M326.172 316.406H314.453V339.844H326.172V316.406ZM445.312 339.844C451.784 339.844 457.031 334.597 457.031 328.125C457.031 321.653 451.784 316.406 445.312 316.406V339.844ZM326.172 339.844H445.312V316.406H326.172V339.844Z" fill="#1A99AF"/>
<path d="M147.461 316.406H135.742V339.844H147.461V316.406ZM268.066 339.844C274.538 339.844 279.785 334.597 279.785 328.125C279.785 321.653 274.538 316.406 268.066 316.406V339.844ZM147.461 339.844H268.066V316.406H147.461V339.844Z" fill="white"/>
<path d="M257.812 257.812H246.094V281.25H257.812V257.812ZM310.547 281.25C317.019 281.25 322.266 276.003 322.266 269.531C322.266 263.06 317.019 257.812 310.547 257.812V281.25ZM257.812 281.25H310.547V257.812H257.812V281.25Z" fill="#272727"/>
<path d="M340.82 167.969H329.102V191.406H340.82V167.969ZM411.133 191.406C417.604 191.406 422.852 186.159 422.852 179.688C422.852 173.216 417.604 167.969 411.133 167.969V191.406ZM340.82 191.406H411.133V167.969H340.82V191.406Z" fill="#272727"/>
<path d="M216.797 375H205.078V398.438H216.797V375ZM262.695 398.438C269.167 398.438 274.414 393.19 274.414 386.719C274.414 380.247 269.167 375 262.695 375V398.438ZM216.797 398.438H262.695V375H216.797V398.438Z" fill="#1A99AF"/>
<path d="M284.18 228.516H272.461V251.953H284.18V228.516ZM312.5 251.953C318.972 251.953 324.219 246.706 324.219 240.234C324.219 233.763 318.972 228.516 312.5 228.516V251.953ZM284.18 251.953H312.5V228.516H284.18V251.953Z" fill="#272727"/>
<path d="M352.539 199.219H340.82V222.656H352.539V199.219ZM391.602 222.656C398.073 222.656 403.32 217.409 403.32 210.938C403.32 204.466 398.073 199.219 391.602 199.219V222.656ZM352.539 222.656H391.602V199.219H352.539V222.656Z" fill="white"/>
<path d="M80.0781 287.109H68.3594V310.547H80.0781V287.109ZM129.883 310.547C136.354 310.547 141.602 305.3 141.602 298.828C141.602 292.356 136.354 287.109 129.883 287.109V310.547ZM80.0781 310.547H129.883V287.109H80.0781V310.547Z" fill="#1A99AF"/>
<path d="M77.1484 228.516H65.4297V251.953H77.1484V228.516ZM101.562 251.953C108.034 251.953 113.281 246.706 113.281 240.234C113.281 233.763 108.034 228.516 101.562 228.516V251.953ZM77.1484 251.953H101.562V228.516H77.1484V251.953Z" fill="#1A99AF"/>
<path d="M288.086 167.969H276.367V191.406H288.086V167.969ZM312.5 191.406C318.972 191.406 324.219 186.159 324.219 179.688C324.219 173.216 318.972 167.969 312.5 167.969V191.406ZM288.086 191.406H312.5V167.969H288.086V191.406Z" fill="#1A99AF"/>
<path d="M159.18 228.516H147.461V251.953H159.18V228.516ZM232.422 251.953C238.894 251.953 244.141 246.706 244.141 240.234C244.141 233.763 238.894 228.516 232.422 228.516V251.953ZM159.18 251.953H232.422V228.516H159.18V251.953Z" fill="white"/>
<path d="M352.539 287.109C346.067 287.109 340.82 292.356 340.82 298.828C340.82 305.3 346.067 310.547 352.539 310.547V287.109ZM419.922 310.547H431.641V287.109H419.922V310.547ZM352.539 310.547H419.922V287.109H352.539V310.547Z" fill="#1A99AF"/>
<path d="M49.8047 316.406C43.3326 316.406 38.0859 321.653 38.0859 328.125C38.0859 334.597 43.3326 339.844 49.8047 339.844V316.406ZM89.8438 339.844H101.562V316.406H89.8438V339.844ZM49.8047 339.844H89.8438V316.406H49.8047V339.844Z" fill="#1A99AF"/>
<path d="M365.234 257.812H353.516V281.25H365.234V257.812ZM449.219 281.25C455.69 281.25 460.938 276.003 460.938 269.531C460.938 263.06 455.69 257.812 449.219 257.812V281.25ZM365.234 281.25H449.219V257.812H365.234V281.25Z" fill="#1A99AF"/>
<path d="M153.32 257.812C146.849 257.812 141.602 263.06 141.602 269.531C141.602 276.003 146.849 281.25 153.32 281.25V257.812ZM199.219 281.25H210.938V257.812H199.219V281.25ZM153.32 281.25H199.219V257.812H153.32V281.25Z" fill="white"/>
<path d="M168.945 199.219C162.474 199.219 157.227 204.466 157.227 210.938C157.227 217.409 162.474 222.656 168.945 222.656V199.219ZM233.398 222.656H245.117V199.219H233.398V222.656ZM168.945 222.656H233.398V199.219H168.945V222.656Z" fill="white"/>
<path d="M49.8047 257.812C43.3326 257.812 38.0859 263.06 38.0859 269.531C38.0859 276.003 43.3326 281.25 49.8047 281.25V257.812ZM96.6797 281.25H108.398V257.812H96.6797V281.25ZM49.8047 281.25H96.6797V257.812H49.8047V281.25Z" fill="#1A99AF"/>
<path d="M46.875 167.969C40.4029 167.969 35.1562 173.216 35.1562 179.688C35.1562 186.159 40.4029 191.406 46.875 191.406V167.969ZM147.461 191.406H159.18V167.969H147.461V191.406ZM46.875 191.406H147.461V167.969H46.875V191.406Z" fill="#1A99AF"/>
<path d="M49.8047 199.219C43.3326 199.219 38.0859 204.466 38.0859 210.938C38.0859 217.409 43.3326 222.656 49.8047 222.656V199.219ZM117.188 222.656H128.906V199.219H117.188V222.656ZM49.8047 222.656H117.188V199.219H49.8047V222.656Z" fill="#1A99AF"/>
<path d="M178.711 167.969C172.239 167.969 166.992 173.216 166.992 179.688C166.992 186.159 172.239 191.406 178.711 191.406V167.969ZM230.469 191.406H242.188V167.969H230.469V191.406ZM178.711 191.406H230.469V167.969H178.711V191.406Z" fill="#272727"/>
<path d="M416.016 199.219H404.297V222.656H416.016V199.219ZM454.102 222.656C460.573 222.656 465.82 217.409 465.82 210.938C465.82 204.466 460.573 199.219 454.102 199.219V222.656ZM416.016 222.656H454.102V199.219H416.016V222.656Z" fill="#272727"/>
<path d="M414.551 228.516C408.079 228.516 402.832 233.763 402.832 240.234C402.832 246.706 408.079 251.953 414.551 251.953V228.516ZM452.148 251.953H463.867V228.516H452.148V251.953ZM414.551 251.953H452.148V228.516H414.551V251.953Z" fill="#1A99AF"/>
<path d="M414.551 228.516C408.079 228.516 402.832 233.763 402.832 240.234C402.832 246.706 408.079 251.953 414.551 251.953V228.516ZM452.148 251.953H463.867V228.516H452.148V251.953ZM414.551 251.953H452.148V228.516H414.551V251.953Z" fill="#1A99AF"/>
<path d="M494.592 272L506.496 204.8H528.288C534.944 204.8 539.968 206.56 543.36 210.08C546.816 213.6 548.544 218.08 548.544 223.52C548.544 230.624 546.176 236.096 541.44 239.936C536.768 243.776 530.304 245.696 522.048 245.696H509.376L504.768 272H494.592ZM511.008 236.576H523.104C527.776 236.576 531.424 235.488 534.048 233.312C536.672 231.136 537.984 228 537.984 223.904C537.984 220.832 537.088 218.4 535.296 216.608C533.568 214.816 530.816 213.92 527.04 213.92H515.04L511.008 236.576ZM575.867 273.152C571.643 273.152 567.963 272.256 564.827 270.464C561.691 268.608 559.259 266.016 557.531 262.688C555.803 259.296 554.939 255.328 554.939 250.784C554.939 245.728 556.059 241.12 558.299 236.96C560.603 232.8 563.803 229.472 567.899 226.976C572.059 224.48 576.923 223.232 582.491 223.232C586.715 223.232 590.267 224.064 593.147 225.728C596.091 227.328 598.331 229.536 599.867 232.352C601.403 235.168 602.171 238.368 602.171 241.952C602.171 243.36 602.043 244.8 601.787 246.272C601.531 247.744 601.211 249.184 600.827 250.592H564.923C564.987 254.88 566.107 258.208 568.283 260.576C570.459 262.88 573.243 264.032 576.635 264.032C579.579 264.032 582.011 263.424 583.931 262.208C585.851 260.928 587.323 259.2 588.347 257.024H598.619C596.763 261.888 594.075 265.792 590.555 268.736C587.035 271.68 582.139 273.152 575.867 273.152ZM581.243 232.064C577.339 232.064 574.107 233.088 571.547 235.136C569.051 237.12 567.259 239.68 566.171 242.816H592.187V241.856C592.187 238.72 591.195 236.32 589.211 234.656C587.291 232.928 584.635 232.064 581.243 232.064ZM612.117 272L618.357 236.576C618.741 234.336 617.845 233.216 615.669 233.216H611.637L613.173 224.384H621.813C624.181 224.384 625.941 224.96 627.093 226.112C628.309 227.264 628.917 228.768 628.917 230.624V231.104H629.493C631.029 228.672 633.077 226.752 635.637 225.344C638.261 223.936 641.365 223.232 644.949 223.232C648.917 223.232 652.117 224.192 654.549 226.112C657.045 227.968 658.741 230.528 659.637 233.792C660.597 236.992 660.693 240.608 659.925 244.64L655.125 272H644.949L649.653 245.312C650.357 241.536 649.941 238.496 648.405 236.192C646.869 233.824 644.309 232.64 640.725 232.64C637.205 232.64 634.197 233.856 631.701 236.288C629.205 238.72 627.541 242.176 626.709 246.656L622.293 272H612.117ZM693.104 258.272C690.032 258.272 687.28 257.728 684.848 256.64L681.68 259.712C680.912 260.48 680.528 261.248 680.528 262.016C680.528 263.168 681.328 263.744 682.928 263.744H695.504C700.56 263.744 704.56 264.832 707.504 267.008C710.448 269.184 711.92 272.352 711.92 276.512C711.92 282.016 709.712 286.336 705.296 289.472C700.88 292.672 694.8 294.272 687.056 294.272C680.592 294.272 675.503 293.056 671.792 290.624C668.08 288.192 666.224 284.832 666.224 280.544C666.224 278.048 666.8 275.904 667.952 274.112C669.168 272.32 670.768 270.784 672.752 269.504C671.216 268.032 670.448 266.144 670.448 263.84C670.448 261.216 671.568 258.88 673.808 256.832L679.088 252.032C677.168 249.472 676.208 246.464 676.208 243.008C676.208 239.168 677.104 235.776 678.896 232.832C680.752 229.824 683.312 227.488 686.576 225.824C689.904 224.096 693.776 223.232 698.192 223.232C700.688 223.232 702.96 223.616 705.008 224.384H723.728L722.576 231.104L714.031 231.584L713.84 232.928C714.48 234.656 714.8 236.48 714.8 238.4C714.8 242.24 713.904 245.664 712.112 248.672C710.384 251.616 707.888 253.952 704.624 255.68C701.424 257.408 697.584 258.272 693.104 258.272ZM694.064 250.112C697.456 250.112 700.208 249.056 702.32 246.944C704.496 244.768 705.584 242.176 705.584 239.168C705.584 236.928 704.752 235.104 703.088 233.696C701.488 232.224 699.408 231.488 696.848 231.488C693.52 231.488 690.8 232.512 688.688 234.56C686.64 236.544 685.616 239.04 685.616 242.048C685.616 244.608 686.384 246.592 687.92 248C689.456 249.408 691.504 250.112 694.064 250.112ZM676.112 278.816C676.112 281.12 677.168 282.848 679.28 284C681.392 285.216 684.24 285.824 687.824 285.824C692.048 285.824 695.472 285.088 698.096 283.616C700.72 282.144 702.032 280.064 702.032 277.376C702.032 275.584 701.296 274.144 699.824 273.056C698.352 272.032 695.824 271.52 692.24 271.52H680.816C677.68 273.632 676.112 276.064 676.112 278.816ZM741.45 273.152C737.802 273.152 734.73 272.256 732.234 270.464C729.802 268.608 728.074 266.08 727.05 262.88C726.026 259.616 725.898 255.904 726.666 251.744L731.466 224.384H741.642L736.938 251.072C736.298 254.976 736.714 258.048 738.186 260.288C739.658 262.464 742.154 263.552 745.674 263.552C749.194 263.552 752.234 262.304 754.794 259.808C757.418 257.312 759.146 253.728 759.978 249.056L764.298 224.384H774.474L768.234 259.808C767.786 262.048 768.682 263.168 770.922 263.168H774.954L773.418 272H764.586C762.218 272 760.426 271.456 759.21 270.368C758.058 269.216 757.482 267.712 757.482 265.856V265.088H757.002C755.338 267.648 753.226 269.632 750.666 271.04C748.17 272.448 745.098 273.152 741.45 273.152ZM814.661 217.088C812.421 217.088 810.533 216.384 808.997 214.976C807.461 213.504 806.693 211.712 806.693 209.6C806.693 207.488 807.461 205.728 808.997 204.32C810.533 202.912 812.421 202.208 814.661 202.208C816.901 202.208 818.757 202.912 820.229 204.32C821.765 205.728 822.533 207.488 822.533 209.6C822.533 211.712 821.765 213.504 820.229 214.976C818.757 216.384 816.901 217.088 814.661 217.088ZM810.629 272C807.237 272 804.709 270.944 803.045 268.832C801.381 266.656 800.869 263.776 801.509 260.192L805.733 236.384C806.117 234.272 805.285 233.216 803.237 233.216H791.717L793.253 224.384H806.597C810.693 224.384 813.445 225.344 814.853 227.264C816.261 229.184 816.613 232.192 815.909 236.288L811.685 260C811.365 262.112 812.229 263.168 814.277 263.168H827.812L826.277 272H810.629ZM842.367 272L848.607 236.576C848.991 234.336 848.095 233.216 845.919 233.216H841.887L843.423 224.384H852.063C854.431 224.384 856.191 224.96 857.343 226.112C858.559 227.264 859.167 228.768 859.167 230.624V231.104H859.743C861.279 228.672 863.327 226.752 865.887 225.344C868.511 223.936 871.615 223.232 875.199 223.232C879.167 223.232 882.367 224.192 884.799 226.112C887.295 227.968 888.991 230.528 889.887 233.792C890.847 236.992 890.943 240.608 890.175 244.64L885.375 272H875.199L879.903 245.312C880.607 241.536 880.191 238.496 878.655 236.192C877.119 233.824 874.559 232.64 870.975 232.64C867.455 232.64 864.447 233.856 861.951 236.288C859.455 238.72 857.791 242.176 856.959 246.656L852.543 272H842.367ZM925.754 272C922.362 272 919.834 270.944 918.17 268.832C916.506 266.656 915.994 263.776 916.634 260.192L924.698 214.88C925.082 212.768 924.25 211.712 922.202 211.712H910.682L912.218 202.88H925.562C929.658 202.88 932.41 203.84 933.818 205.76C935.226 207.68 935.578 210.688 934.874 214.784L926.81 260C926.49 262.112 927.354 263.168 929.402 263.168H942.938L941.402 272H925.754ZM971.796 268.064L958.932 224.384H969.396L979.668 260.48L992.436 241.472C993.396 240 994.132 238.624 994.644 237.344C995.22 236.064 995.636 234.56 995.892 232.832L997.428 224.384H1007.89L1006.74 231.104C1006.23 234.048 1005.52 236.64 1004.63 238.88C1003.73 241.12 1002.45 243.52 1000.79 246.08L969.204 293.12H957.588L974.484 268.064H971.796ZM1035.98 272.576C1033.61 272.576 1031.6 271.808 1029.93 270.272C1028.27 268.672 1027.44 266.752 1027.44 264.512C1027.44 262.272 1028.27 260.384 1029.93 258.848C1031.6 257.312 1033.61 256.544 1035.98 256.544C1038.41 256.544 1040.43 257.312 1042.03 258.848C1043.69 260.384 1044.53 262.272 1044.53 264.512C1044.53 266.752 1043.69 268.672 1042.03 270.272C1040.43 271.808 1038.41 272.576 1035.98 272.576ZM1093.74 273.152C1089.32 273.152 1085.48 272.224 1082.22 270.368C1079.02 268.512 1076.55 265.92 1074.83 262.592C1073.1 259.264 1072.23 255.392 1072.23 250.976C1072.23 245.92 1073.32 241.312 1075.5 237.152C1077.74 232.928 1080.87 229.568 1084.91 227.072C1089 224.512 1093.8 223.232 1099.31 223.232C1103.66 223.232 1107.4 224.16 1110.54 226.016C1113.74 227.872 1116.2 230.464 1117.93 233.792C1119.72 237.12 1120.62 240.992 1120.62 245.408C1120.62 250.4 1119.5 255.008 1117.26 259.232C1115.08 263.456 1111.98 266.848 1107.95 269.408C1103.98 271.904 1099.24 273.152 1093.74 273.152ZM1094.22 263.456C1097.55 263.456 1100.39 262.688 1102.76 261.152C1105.19 259.616 1107.05 257.568 1108.33 255.008C1109.61 252.384 1110.25 249.472 1110.25 246.272C1110.25 241.92 1109.16 238.624 1106.99 236.384C1104.81 234.08 1102.03 232.928 1098.63 232.928C1095.31 232.928 1092.43 233.696 1089.99 235.232C1087.63 236.768 1085.8 238.848 1084.52 241.472C1083.24 244.032 1082.6 246.912 1082.6 250.112C1082.6 254.592 1083.69 257.952 1085.87 260.192C1088.11 262.368 1090.89 263.456 1094.22 263.456ZM1139.88 272L1146.21 236.384C1146.6 234.272 1145.73 233.216 1143.62 233.216H1135.17L1136.71 224.384H1149.86C1152.42 224.384 1154.21 225.056 1155.24 226.4C1156.32 227.68 1156.8 229.504 1156.68 231.872V232.16H1157.16C1158.56 228.96 1160.55 226.688 1163.11 225.344C1165.73 223.936 1169.06 223.232 1173.09 223.232H1180.87L1178.95 233.984H1167.62C1164.29 233.984 1161.48 234.976 1159.17 236.96C1156.93 238.944 1155.49 241.76 1154.85 245.408L1150.05 272H1139.88ZM1211.17 258.272C1208.09 258.272 1205.34 257.728 1202.91 256.64L1199.74 259.712C1198.97 260.48 1198.59 261.248 1198.59 262.016C1198.59 263.168 1199.39 263.744 1200.99 263.744H1213.57C1218.62 263.744 1222.62 264.832 1225.57 267.008C1228.51 269.184 1229.98 272.352 1229.98 276.512C1229.98 282.016 1227.77 286.336 1223.36 289.472C1218.94 292.672 1212.86 294.272 1205.12 294.272C1198.65 294.272 1193.57 293.056 1189.85 290.624C1186.14 288.192 1184.29 284.832 1184.29 280.544C1184.29 278.048 1184.86 275.904 1186.01 274.112C1187.23 272.32 1188.83 270.784 1190.81 269.504C1189.28 268.032 1188.51 266.144 1188.51 263.84C1188.51 261.216 1189.63 258.88 1191.87 256.832L1197.15 252.032C1195.23 249.472 1194.27 246.464 1194.27 243.008C1194.27 239.168 1195.17 235.776 1196.96 232.832C1198.81 229.824 1201.37 227.488 1204.64 225.824C1207.97 224.096 1211.84 223.232 1216.25 223.232C1218.75 223.232 1221.02 223.616 1223.07 224.384H1241.79L1240.64 231.104L1232.09 231.584L1231.9 232.928C1232.54 234.656 1232.86 236.48 1232.86 238.4C1232.86 242.24 1231.97 245.664 1230.17 248.672C1228.45 251.616 1225.95 253.952 1222.69 255.68C1219.49 257.408 1215.65 258.272 1211.17 258.272ZM1212.13 250.112C1215.52 250.112 1218.27 249.056 1220.38 246.944C1222.56 244.768 1223.65 242.176 1223.65 239.168C1223.65 236.928 1222.81 235.104 1221.15 233.696C1219.55 232.224 1217.47 231.488 1214.91 231.488C1211.58 231.488 1208.86 232.512 1206.75 234.56C1204.7 236.544 1203.68 239.04 1203.68 242.048C1203.68 244.608 1204.45 246.592 1205.98 248C1207.52 249.408 1209.57 250.112 1212.13 250.112ZM1194.17 278.816C1194.17 281.12 1195.23 282.848 1197.34 284C1199.45 285.216 1202.3 285.824 1205.89 285.824C1210.11 285.824 1213.53 285.088 1216.16 283.616C1218.78 282.144 1220.09 280.064 1220.09 277.376C1220.09 275.584 1219.36 274.144 1217.89 273.056C1216.41 272.032 1213.89 271.52 1210.3 271.52H1198.88C1195.74 273.632 1194.17 276.064 1194.17 278.816Z" fill="black"/>
</svg>
