<svg width="512" height="512" viewBox="0 0 512 512" fill="none" xmlns="http://www.w3.org/2000/svg">
<circle cx="256.001" cy="489" r="12" fill="#1A99AF"/>
<circle cx="361" cy="426" r="12" fill="#1A99AF"/>
<circle cx="105" cy="396" r="12" fill="#1A99AF"/>
<circle cx="54" cy="366" r="12" fill="#1A99AF"/>
<circle cx="120" cy="336" r="12" fill="#272727"/>
<circle cx="163" cy="306" r="12" fill="#272727"/>
<circle cx="132" cy="246" r="12" fill="#272727"/>
<circle cx="145" cy="216" r="12" fill="#272727"/>
<circle cx="234" cy="276" r="12" fill="#272727"/>
<circle cx="264" cy="246" r="12" fill="#272727"/>
<circle cx="346" cy="246" r="12" fill="white"/>
<circle cx="331" cy="216" r="12" fill="#272727"/>
<circle cx="195" cy="396" r="12" fill="#1A99AF"/>
<circle cx="294" cy="396" r="12" fill="#1A99AF"/>
<circle cx="54" cy="306" r="12" fill="#1A99AF"/>
<circle cx="129" cy="276" r="12" fill="#272727"/>
<circle cx="51" cy="246" r="12" fill="#1A99AF"/>
<path d="M203.001 456H311.001" stroke="#1A99AF" stroke-width="24" stroke-linecap="round"/>
<path d="M146 414C139.373 414 134 419.373 134 426C134 432.627 139.373 438 146 438V414ZM326 438H338V414H326V438ZM146 438H326V414H146V438Z" fill="#1A99AF"/>
<circle cx="457" cy="366" r="12" fill="#1A99AF"/>
<circle cx="457" cy="306" r="12" fill="#1A99AF"/>
<path d="M385 246C385 252.627 379.627 258 373 258C366.373 258 361 252.627 361 246C361 239.373 366.373 234 373 234C379.627 234 385 239.373 385 246Z" fill="white"/>
<circle cx="401" cy="246" r="12" fill="#272727"/>
<circle cx="346" cy="275" r="12" fill="white"/>
<path d="M283 216C283 222.627 277.627 228 271 228C264.373 228 259 222.627 259 216C259 209.373 264.373 204 271 204C277.627 204 283 209.373 283 216Z" fill="#272727"/>
<path d="M317 336C317 342.627 311.627 348 305 348C298.373 348 293 342.627 293 336C293 329.373 298.373 324 305 324C311.627 324 317 329.373 317 336Z" fill="white"/>
<path d="M238.001 31C238.001 24.3726 243.374 19 250.001 19C256.628 19 262.001 24.3726 262.001 31C262.001 37.6274 256.628 43 250.001 43C243.374 43 238.001 37.6274 238.001 31Z" fill="#1A99AF"/>
<path d="M132 94C132 87.3726 137.373 82 144 82C150.627 82 156 87.3726 156 94C156 100.627 150.627 106 144 106C137.373 106 132 100.627 132 94Z" fill="#1A99AF"/>
<path d="M397 124C397 117.373 402.373 112 409 112C415.627 112 421 117.373 421 124C421 130.627 415.627 136 409 136C402.373 136 397 130.627 397 124Z" fill="#1A99AF"/>
<path d="M439 184C439 177.373 444.373 172 451 172C457.627 172 463 177.373 463 184C463 190.627 457.627 196 451 196C444.373 196 439 190.627 439 184Z" fill="#1A99AF"/>
<path d="M291 216C291 209.373 296.373 204 303 204C309.627 204 315 209.373 315 216C315 222.627 309.627 228 303 228C296.373 228 291 222.627 291 216Z" fill="#1A99AF"/>
<path d="M257 184C257 177.373 262.373 172 269 172C275.627 172 281 177.373 281 184C281 190.627 275.627 196 269 196C262.373 196 257 190.627 257 184Z" fill="#1A99AF"/>
<path d="M36 154C36 147.373 41.3726 142 48 142C54.6274 142 60 147.373 60 154C60 160.627 54.6274 166 48 166C41.3726 166 36 160.627 36 154Z" fill="#1A99AF"/>
<path d="M303.001 64H195.001" stroke="#1A99AF" stroke-width="24" stroke-linecap="round"/>
<path d="M175 82H163V106H175V82ZM360 106C366.627 106 372 100.627 372 94C372 87.3726 366.627 82 360 82V106ZM175 106L360 106V82L175 82V106Z" fill="#1A99AF"/>
<path d="M76 142L64 142L64 166L76 166L76 142ZM451 166C457.627 166 463 160.627 463 154C463 147.373 457.627 142 451 142L451 166ZM76 166L451 166L451 142L76 142L76 166Z" fill="#1A99AF"/>
<path d="M87.9961 112C81.3687 112 75.9961 117.373 75.9961 124C75.9961 130.627 81.3687 136 87.9961 136V112ZM381.003 136H393.003V112H381.003V136ZM87.9961 136H381.003V112H87.9961V136Z" fill="#1A99AF"/>
<path d="M321 384H309V408H321V384ZM421 408C427.627 408 433 402.627 433 396C433 389.373 427.627 384 421 384V408ZM321 408H421V384H321V408Z" fill="#1A99AF"/>
<path d="M133 384H121V408H133V384ZM169 408C175.627 408 181 402.627 181 396C181 389.373 175.627 384 169 384V408ZM133 408H169V384H133V408Z" fill="#1A99AF"/>
<path d="M84 354H72V378H84V354ZM120 378C126.627 378 132 372.627 132 366C132 359.373 126.627 354 120 354V378ZM84 378H120V354H84V378Z" fill="#272727"/>
<path d="M262 354C255.373 354 250 359.373 250 366C250 372.627 255.373 378 262 378V354ZM423 378H435V354H423V378ZM262 378L423 378V354L262 354V378Z" fill="#1A99AF"/>
<path d="M147 354C140.373 354 135 359.373 135 366C135 372.627 140.373 378 147 378V354ZM236 378H248V354H236V378ZM147 378H236V354H147V378Z" fill="white"/>
<path d="M193 294C186.373 294 181 299.373 181 306C181 312.627 186.373 318 193 318V294ZM271 318H283V294H271V318ZM193 318H271V294H193V318Z" fill="white"/>
<path d="M299 294C292.373 294 287 299.373 287 306C287 312.627 292.373 318 299 318V294ZM334 318H346V294H334V318ZM299 318H334V294H299V318Z" fill="white"/>
<path d="M334 324H322V348H334V324ZM456 348C462.627 348 468 342.627 468 336C468 329.373 462.627 324 456 324V348ZM334 348L456 348V324L334 324V348Z" fill="#1A99AF"/>
<path d="M151 324H139V348H151V324ZM274.5 348C281.127 348 286.5 342.627 286.5 336C286.5 329.373 281.127 324 274.5 324V348ZM151 348L274.5 348V324L151 324V348Z" fill="white"/>
<path d="M264 264H252V288H264V264ZM318 288C324.627 288 330 282.627 330 276C330 269.373 324.627 264 318 264V288ZM264 288H318V264H264V288Z" fill="#272727"/>
<path d="M349 172H337V196H349V172ZM421 196C427.627 196 433 190.627 433 184C433 177.373 427.627 172 421 172V196ZM349 196L421 196V172L349 172V196Z" fill="#272727"/>
<path d="M222 384H210V408H222V384ZM269 408C275.627 408 281 402.627 281 396C281 389.373 275.627 384 269 384V408ZM222 408H269V384H222V408Z" fill="#1A99AF"/>
<path d="M291 234H279V258H291V234ZM320 258C326.627 258 332 252.627 332 246C332 239.373 326.627 234 320 234V258ZM291 258H320V234H291V258Z" fill="#272727"/>
<path d="M361 204H349V228H361V204ZM401 228C407.627 228 413 222.627 413 216C413 209.373 407.627 204 401 204V228ZM361 228H401V204H361V228Z" fill="white"/>
<path d="M82 294H70V318H82V294ZM133 318C139.627 318 145 312.627 145 306C145 299.373 139.627 294 133 294V318ZM82 318H133V294H82V318Z" fill="#1A99AF"/>
<path d="M79 234H67V258H79V234ZM104 258C110.627 258 116 252.627 116 246C116 239.373 110.627 234 104 234V258ZM79 258H104V234H79V258Z" fill="#1A99AF"/>
<path d="M295 172H283V196H295V172ZM320 196C326.627 196 332 190.627 332 184C332 177.373 326.627 172 320 172V196ZM295 196H320V172H295V196Z" fill="#1A99AF"/>
<path d="M163 234H151V258H163V234ZM238 258C244.627 258 250 252.627 250 246C250 239.373 244.627 234 238 234V258ZM163 258H238V234L163 234V258Z" fill="white"/>
<path d="M361 294C354.373 294 349 299.373 349 306C349 312.627 354.373 318 361 318V294ZM430 318H442V294H430V318ZM361 318H430V294H361V318Z" fill="#1A99AF"/>
<path d="M51 324C44.3726 324 39 329.373 39 336C39 342.627 44.3726 348 51 348V324ZM92 348H104V324H92V348ZM51 348H92V324H51V348Z" fill="#1A99AF"/>
<path d="M374 264H362V288H374V264ZM460 288C466.627 288 472 282.627 472 276C472 269.373 466.627 264 460 264V288ZM374 288H460V264H374V288Z" fill="#1A99AF"/>
<path d="M157 264C150.373 264 145 269.373 145 276C145 282.627 150.373 288 157 288V264ZM204 288H216V264H204V288ZM157 288H204V264H157V288Z" fill="white"/>
<path d="M173 204C166.373 204 161 209.373 161 216C161 222.627 166.373 228 173 228V204ZM239 228H251V204H239V228ZM173 228H239V204H173V228Z" fill="white"/>
<path d="M51 264C44.3726 264 39 269.373 39 276C39 282.627 44.3726 288 51 288V264ZM99 288H111V264H99V288ZM51 288H99V264H51V288Z" fill="#1A99AF"/>
<path d="M48 172C41.3726 172 36 177.373 36 184C36 190.627 41.3726 196 48 196V172ZM151 196H163V172H151V196ZM48 196H151V172H48V196Z" fill="#1A99AF"/>
<path d="M51 204C44.3726 204 39 209.373 39 216C39 222.627 44.3726 228 51 228V204ZM120 228H132V204H120V228ZM51 228H120V204H51V228Z" fill="#1A99AF"/>
<path d="M183 172C176.373 172 171 177.373 171 184C171 190.627 176.373 196 183 196V172ZM236 196H248V172H236V196ZM183 196H236V172H183V196Z" fill="#272727"/>
<path d="M426 204L414 204L414 228L426 228L426 204ZM465 228C471.627 228 477 222.627 477 216C477 209.373 471.627 204 465 204L465 228ZM426 228L465 228L465 204L426 204L426 228Z" fill="#272727"/>
<path d="M424.5 234C417.873 234 412.5 239.373 412.5 246C412.5 252.627 417.873 258 424.5 258V234ZM463 258H475V234H463V258ZM424.5 258H463V234H424.5V258Z" fill="#1A99AF"/>
<path d="M424.5 234C417.873 234 412.5 239.373 412.5 246C412.5 252.627 417.873 258 424.5 258V234ZM463 258H475V234H463V258ZM424.5 258H463V234H424.5V258Z" fill="#1A99AF"/>
</svg>
