<svg width="500" height="500" viewBox="0 0 500 500" fill="none" xmlns="http://www.w3.org/2000/svg">
<path d="M250.001 489.258C256.473 489.258 261.72 484.011 261.72 477.539C261.72 471.067 256.473 465.82 250.001 465.82C243.529 465.82 238.282 471.067 238.282 477.539C238.282 484.011 243.529 489.258 250.001 489.258Z" fill="#ED9A27"/>
<path d="M352.539 427.734C359.011 427.734 364.258 422.488 364.258 416.016C364.258 409.544 359.011 404.297 352.539 404.297C346.067 404.297 340.82 409.544 340.82 416.016C340.82 422.488 346.067 427.734 352.539 427.734Z" fill="#ED9A27"/>
<path d="M102.539 398.438C109.011 398.438 114.258 393.191 114.258 386.719C114.258 380.247 109.011 375 102.539 375C96.067 375 90.8203 380.247 90.8203 386.719C90.8203 393.191 96.067 398.438 102.539 398.438Z" fill="#ED9A27"/>
<path d="M52.7344 369.141C59.2065 369.141 64.4531 363.894 64.4531 357.422C64.4531 350.95 59.2065 345.703 52.7344 345.703C46.2623 345.703 41.0156 350.95 41.0156 357.422C41.0156 363.894 46.2623 369.141 52.7344 369.141Z" fill="#ED9A27"/>
<path d="M190.43 398.438C196.902 398.438 202.148 393.191 202.148 386.719C202.148 380.247 196.902 375 190.43 375C183.958 375 178.711 380.247 178.711 386.719C178.711 393.191 183.958 398.438 190.43 398.438Z" fill="#ED9A27"/>
<path d="M287.109 398.438C293.581 398.438 298.828 393.191 298.828 386.719C298.828 380.247 293.581 375 287.109 375C280.637 375 275.391 380.247 275.391 386.719C275.391 393.191 280.637 398.438 287.109 398.438Z" fill="#ED9A27"/>
<path d="M52.7344 310.547C59.2065 310.547 64.4531 305.3 64.4531 298.828C64.4531 292.356 59.2065 287.109 52.7344 287.109C46.2623 287.109 41.0156 292.356 41.0156 298.828C41.0156 305.3 46.2623 310.547 52.7344 310.547Z" fill="#ED9A27"/>
<path d="M49.8047 251.953C56.2768 251.953 61.5234 246.706 61.5234 240.234C61.5234 233.762 56.2768 228.516 49.8047 228.516C43.3326 228.516 38.0859 233.762 38.0859 240.234C38.0859 246.706 43.3326 251.953 49.8047 251.953Z" fill="#ED9A27"/>
<path d="M198.243 445.312H303.712" stroke="#ED9A27" stroke-width="24" stroke-linecap="round"/>
<path d="M142.578 404.297C136.106 404.297 130.859 409.544 130.859 416.016C130.859 422.487 136.106 427.734 142.578 427.734V404.297ZM318.359 427.734H330.078V404.297H318.359V427.734ZM142.578 427.734H318.359V404.297H142.578V427.734Z" fill="#ED9A27"/>
<path d="M446.289 369.141C452.761 369.141 458.008 363.894 458.008 357.422C458.008 350.95 452.761 345.703 446.289 345.703C439.817 345.703 434.57 350.95 434.57 357.422C434.57 363.894 439.817 369.141 446.289 369.141Z" fill="#ED9A27"/>
<path d="M446.289 310.547C452.761 310.547 458.008 305.3 458.008 298.828C458.008 292.356 452.761 287.109 446.289 287.109C439.817 287.109 434.57 292.356 434.57 298.828C434.57 305.3 439.817 310.547 446.289 310.547Z" fill="#ED9A27"/>
<path d="M232.423 30.2734C232.423 23.8014 237.67 18.5547 244.142 18.5547C250.613 18.5547 255.86 23.8014 255.86 30.2734C255.86 36.7455 250.613 41.9922 244.142 41.9922C237.67 41.9922 232.423 36.7455 232.423 30.2734Z" fill="#ED9A27"/>
<path d="M128.906 91.7969C128.906 85.3248 134.153 80.0781 140.625 80.0781C147.097 80.0781 152.344 85.3248 152.344 91.7969C152.344 98.2686 147.097 103.516 140.625 103.516C134.153 103.516 128.906 98.2686 128.906 91.7969Z" fill="#ED9A27"/>
<path d="M387.695 121.094C387.695 114.622 392.942 109.375 399.414 109.375C405.886 109.375 411.133 114.622 411.133 121.094C411.133 127.565 405.886 132.812 399.414 132.812C392.942 132.812 387.695 127.565 387.695 121.094Z" fill="#ED9A27"/>
<path d="M428.711 179.688C428.711 173.216 433.958 167.969 440.43 167.969C446.901 167.969 452.148 173.216 452.148 179.688C452.148 186.159 446.901 191.406 440.43 191.406C433.958 191.406 428.711 186.159 428.711 179.688Z" fill="#ED9A27"/>
<path d="M284.18 210.938C284.18 204.466 289.427 199.219 295.898 199.219C302.37 199.219 307.617 204.466 307.617 210.938C307.617 217.409 302.37 222.656 295.898 222.656C289.427 222.656 284.18 217.409 284.18 210.938Z" fill="#ED9A27"/>
<path d="M250.977 179.688C250.977 173.216 256.224 167.969 262.695 167.969C269.167 167.969 274.414 173.216 274.414 179.688C274.414 186.159 269.167 191.406 262.695 191.406C256.224 191.406 250.977 186.159 250.977 179.688Z" fill="#ED9A27"/>
<path d="M35.1562 150.391C35.1562 143.919 40.4029 138.672 46.875 138.672C53.3471 138.672 58.5938 143.919 58.5938 150.391C58.5938 156.862 53.3471 162.109 46.875 162.109C40.4029 162.109 35.1562 156.862 35.1562 150.391Z" fill="#ED9A27"/>
<path d="M295.899 62.5H190.431" stroke="#ED9A27" stroke-width="24" stroke-linecap="round"/>
<path d="M170.898 80.0781H159.18V103.516H170.898V80.0781ZM351.562 103.516C358.034 103.516 363.281 98.2686 363.281 91.7969C363.281 85.3248 358.034 80.0781 351.562 80.0781V103.516ZM170.898 103.516H351.562V80.0781H170.898V103.516Z" fill="#ED9A27"/>
<path d="M74.2188 138.672H62.5V162.109H74.2188V138.672ZM440.43 162.109C446.901 162.109 452.148 156.862 452.148 150.391C452.148 143.919 446.901 138.672 440.43 138.672V162.109ZM74.2188 162.109H440.43V138.672H74.2188V162.109Z" fill="#ED9A27"/>
<path d="M85.9336 109.375C79.4615 109.375 74.2148 114.622 74.2148 121.094C74.2148 127.565 79.4615 132.812 85.9336 132.812V109.375ZM372.073 132.812H383.792V109.375H372.073V132.812ZM85.9336 132.812H372.073V109.375H85.9336V132.812Z" fill="#ED9A27"/>
<path d="M313.477 375H301.758V398.438H313.477V375ZM411.133 398.438C417.604 398.438 422.852 393.19 422.852 386.719C422.852 380.247 417.604 375 411.133 375V398.438ZM313.477 398.438H411.133V375H313.477V398.438Z" fill="#ED9A27"/>
<path d="M129.883 375H118.164V398.438H129.883V375ZM165.039 398.438C171.511 398.438 176.758 393.19 176.758 386.719C176.758 380.247 171.511 375 165.039 375V398.438ZM129.883 398.438H165.039V375H129.883V398.438Z" fill="#ED9A27"/>
<path d="M255.859 345.703C249.388 345.703 244.141 350.95 244.141 357.422C244.141 363.894 249.388 369.141 255.859 369.141V345.703ZM413.086 369.141H424.805V345.703H413.086V369.141ZM255.859 369.141H413.086V345.703H255.859V369.141Z" fill="#ED9A27"/>
<path d="M326.172 316.406H314.453V339.844H326.172V316.406ZM445.312 339.844C451.784 339.844 457.031 334.597 457.031 328.125C457.031 321.653 451.784 316.406 445.312 316.406V339.844ZM326.172 339.844H445.312V316.406H326.172V339.844Z" fill="#ED9A27"/>
<path d="M216.797 375H205.078V398.438H216.797V375ZM262.695 398.438C269.167 398.438 274.414 393.19 274.414 386.719C274.414 380.247 269.167 375 262.695 375V398.438ZM216.797 398.438H262.695V375H216.797V398.438Z" fill="#ED9A27"/>
<path d="M80.0781 287.109H68.3594V310.547H80.0781V287.109ZM129.883 310.547C136.354 310.547 141.602 305.3 141.602 298.828C141.602 292.356 136.354 287.109 129.883 287.109V310.547ZM80.0781 310.547H129.883V287.109H80.0781V310.547Z" fill="#ED9A27"/>
<path d="M77.1484 228.516H65.4297V251.953H77.1484V228.516ZM101.562 251.953C108.034 251.953 113.281 246.706 113.281 240.234C113.281 233.763 108.034 228.516 101.562 228.516V251.953ZM77.1484 251.953H101.562V228.516H77.1484V251.953Z" fill="#ED9A27"/>
<path d="M288.086 167.969H276.367V191.406H288.086V167.969ZM312.5 191.406C318.972 191.406 324.219 186.159 324.219 179.688C324.219 173.216 318.972 167.969 312.5 167.969V191.406ZM288.086 191.406H312.5V167.969H288.086V191.406Z" fill="#ED9A27"/>
<path d="M352.539 287.109C346.067 287.109 340.82 292.356 340.82 298.828C340.82 305.3 346.067 310.547 352.539 310.547V287.109ZM419.922 310.547H431.641V287.109H419.922V310.547ZM352.539 310.547H419.922V287.109H352.539V310.547Z" fill="#ED9A27"/>
<path d="M49.8047 316.406C43.3326 316.406 38.0859 321.653 38.0859 328.125C38.0859 334.597 43.3326 339.844 49.8047 339.844V316.406ZM89.8438 339.844H101.562V316.406H89.8438V339.844ZM49.8047 339.844H89.8438V316.406H49.8047V339.844Z" fill="#ED9A27"/>
<path d="M365.234 257.812H353.516V281.25H365.234V257.812ZM449.219 281.25C455.69 281.25 460.938 276.003 460.938 269.531C460.938 263.06 455.69 257.812 449.219 257.812V281.25ZM365.234 281.25H449.219V257.812H365.234V281.25Z" fill="#ED9A27"/>
<path d="M49.8047 257.812C43.3326 257.812 38.0859 263.06 38.0859 269.531C38.0859 276.003 43.3326 281.25 49.8047 281.25V257.812ZM96.6797 281.25H108.398V257.812H96.6797V281.25ZM49.8047 281.25H96.6797V257.812H49.8047V281.25Z" fill="#ED9A27"/>
<path d="M46.875 167.969C40.4029 167.969 35.1562 173.216 35.1562 179.688C35.1562 186.159 40.4029 191.406 46.875 191.406V167.969ZM147.461 191.406H159.18V167.969H147.461V191.406ZM46.875 191.406H147.461V167.969H46.875V191.406Z" fill="#ED9A27"/>
<path d="M49.8047 199.219C43.3326 199.219 38.0859 204.466 38.0859 210.938C38.0859 217.409 43.3326 222.656 49.8047 222.656V199.219ZM117.188 222.656H128.906V199.219H117.188V222.656ZM49.8047 222.656H117.188V199.219H49.8047V222.656Z" fill="#ED9A27"/>
<path d="M414.551 228.516C408.079 228.516 402.832 233.763 402.832 240.234C402.832 246.706 408.079 251.953 414.551 251.953V228.516ZM452.148 251.953H463.867V228.516H452.148V251.953ZM414.551 251.953H452.148V228.516H414.551V251.953Z" fill="#ED9A27"/>
</svg>
